<svg width="38" height="38" viewBox="0 0 38 38" fill="none" xmlns="http://www.w3.org/2000/svg">
<g clip-path="url(#clip0_2654_1474)">
<path d="M1.58398 1.58594L36.4173 36.4193M33.2507 33.2526H4.75065C3.9108 33.2526 3.10534 32.919 2.51148 32.3251C1.91761 31.7312 1.58398 30.9258 1.58398 30.0859V12.6693C1.58398 11.8294 1.91761 11.024 2.51148 10.4301C3.10534 9.83623 3.9108 9.5026 4.75065 9.5026H9.50065M14.2507 4.7526H23.7507L26.9173 9.5026H33.2507C34.0905 9.5026 34.896 9.83623 35.4898 10.4301C36.0837 11.024 36.4173 11.8294 36.4173 12.6693V27.4576M24.194 24.1959C23.6685 24.9639 22.9802 25.6067 22.1781 26.0785C21.376 26.5503 20.4797 26.8395 19.5532 26.9256C18.6266 27.0117 17.6924 26.8926 16.8171 26.5766C15.9418 26.2607 15.1468 25.7558 14.4888 25.0978C13.8308 24.4398 13.3259 23.6448 13.01 22.7695C12.694 21.8942 12.5749 20.96 12.661 20.0334C12.7471 19.1069 13.0363 18.2106 13.5081 17.4085C13.9799 16.6064 14.6227 15.9181 15.3907 15.3926" stroke="#C00F0C" stroke-width="4" stroke-linecap="round" stroke-linejoin="round"/>
</g>
<defs>
<clipPath id="clip0_2654_1474">
<rect width="38" height="38" fill="white"/>
</clipPath>
</defs>
</svg>
