<svg width="38" height="34" viewBox="0 0 38 34" fill="none" xmlns="http://www.w3.org/2000/svg">
<path d="M36.4173 28.0833C36.4173 28.9232 36.0837 29.7286 35.4898 30.3225C34.896 30.9164 34.0905 31.25 33.2507 31.25H4.75065C3.9108 31.25 3.10534 30.9164 2.51148 30.3225C1.91761 29.7286 1.58398 28.9232 1.58398 28.0833V10.6667C1.58398 9.82681 1.91761 9.02136 2.51148 8.4275C3.10534 7.83363 3.9108 7.5 4.75065 7.5H11.084L14.2507 2.75H23.7507L26.9173 7.5H33.2507C34.0905 7.5 34.896 7.83363 35.4898 8.4275C36.0837 9.02136 36.4173 9.82681 36.4173 10.6667V28.0833Z" stroke="#1E1E1E" stroke-width="4" stroke-linecap="round" stroke-linejoin="round"/>
<path d="M19.0007 24.9167C22.4985 24.9167 25.334 22.0811 25.334 18.5833C25.334 15.0855 22.4985 12.25 19.0007 12.25C15.5028 12.25 12.6673 15.0855 12.6673 18.5833C12.6673 22.0811 15.5028 24.9167 19.0007 24.9167Z" stroke="#1E1E1E" stroke-width="4" stroke-linecap="round" stroke-linejoin="round"/>
</svg>
