<svg width="24" height="24" viewBox="0 0 24 24" fill="none" xmlns="http://www.w3.org/2000/svg">
<g clip-path="url(#clip0_502_2)">
<path d="M12.0001 24C11.8032 24.0003 11.6082 23.9617 11.4263 23.8864C11.2443 23.811 11.0791 23.7004 10.9401 23.561L3.26413 15.889C2.23274 14.8575 1.65331 13.4586 1.65331 12C1.65331 10.5413 2.23274 9.14241 3.26413 8.11097L10.9361 0.438969C11.2175 0.157707 11.5991 -0.000252036 11.997 -0.000158268C12.3948 -6.45e-05 12.7764 0.158074 13.0576 0.439469C13.3389 0.720864 13.4968 1.10246 13.4967 1.50032C13.4967 1.89818 13.3385 2.27971 13.0571 2.56097L5.38513 10.232C5.15291 10.4641 4.96871 10.7398 4.84303 11.0431C4.71735 11.3465 4.65266 11.6716 4.65266 12C4.65266 12.3283 4.71735 12.6535 4.84303 12.9568C4.96871 13.2602 5.15291 13.5358 5.38513 13.768L13.0571 21.439C13.2668 21.6485 13.4097 21.9155 13.4677 22.2062C13.5258 22.4969 13.4964 22.7982 13.3833 23.0722C13.2703 23.3463 13.0785 23.5806 12.8323 23.7457C12.5861 23.9108 12.2966 23.9993 12.0001 24V24Z" fill="#374957"/>
<path d="M21.542 24C21.3449 24.0001 21.1498 23.9614 20.9678 23.8861C20.7857 23.8107 20.6203 23.7003 20.481 23.561L11.4 14.475C10.7447 13.818 10.3768 12.9279 10.3768 12C10.3768 11.0721 10.7447 10.1821 11.4 9.52502L20.481 0.43902C20.7649 0.170806 21.1423 0.0239381 21.5329 0.029644C21.9234 0.03535 22.2964 0.19318 22.5724 0.469574C22.8484 0.745968 23.0057 1.11912 23.0108 1.50969C23.016 1.90026 22.8686 2.27744 22.6 2.56102L13.514 11.646C13.4674 11.6925 13.4305 11.7476 13.4052 11.8084C13.38 11.8691 13.3671 11.9343 13.3671 12C13.3671 12.0658 13.38 12.1309 13.4052 12.1917C13.4305 12.2524 13.4674 12.3076 13.514 12.354L22.6 21.439C22.8097 21.6486 22.9526 21.9157 23.0106 22.2065C23.0687 22.4972 23.0392 22.7987 22.926 23.0728C22.8128 23.3468 22.6209 23.5812 22.3745 23.7462C22.1282 23.9112 21.8385 23.9996 21.542 24V24Z" fill="#374957"/>
</g>
<defs>
<clipPath id="clip0_502_2">
<rect width="24" height="24" fill="white"/>
</clipPath>
</defs>
</svg>
