<svg width="38" height="38" viewBox="0 0 38 38" fill="none" xmlns="http://www.w3.org/2000/svg">
<path d="M11.0833 0H6.33333C4.65363 0 3.04272 0.66726 1.85499 1.85499C0.66726 3.04272 0 4.65363 0 6.33333L0 11.0833C0 12.763 0.66726 14.3739 1.85499 15.5617C3.04272 16.7494 4.65363 17.4167 6.33333 17.4167H11.0833C12.763 17.4167 14.3739 16.7494 15.5617 15.5617C16.7494 14.3739 17.4167 12.763 17.4167 11.0833V6.33333C17.4167 4.65363 16.7494 3.04272 15.5617 1.85499C14.3739 0.66726 12.763 0 11.0833 0V0ZM14.25 11.0833C14.25 11.9232 13.9164 12.7286 13.3225 13.3225C12.7286 13.9164 11.9232 14.25 11.0833 14.25H6.33333C5.49348 14.25 4.68803 13.9164 4.09416 13.3225C3.5003 12.7286 3.16667 11.9232 3.16667 11.0833V6.33333C3.16667 5.49348 3.5003 4.68803 4.09416 4.09416C4.68803 3.5003 5.49348 3.16667 6.33333 3.16667H11.0833C11.9232 3.16667 12.7286 3.5003 13.3225 4.09416C13.9164 4.68803 14.25 5.49348 14.25 6.33333V11.0833Z" fill="#006FFD"/>
<path d="M31.6654 0H26.9154C25.2357 0 23.6248 0.66726 22.437 1.85499C21.2493 3.04272 20.582 4.65363 20.582 6.33333V11.0833C20.582 12.763 21.2493 14.3739 22.437 15.5617C23.6248 16.7494 25.2357 17.4167 26.9154 17.4167H31.6654C33.3451 17.4167 34.956 16.7494 36.1437 15.5617C37.3314 14.3739 37.9987 12.763 37.9987 11.0833V6.33333C37.9987 4.65363 37.3314 3.04272 36.1437 1.85499C34.956 0.66726 33.3451 0 31.6654 0V0ZM34.832 11.0833C34.832 11.9232 34.4984 12.7286 33.9045 13.3225C33.3107 13.9164 32.5052 14.25 31.6654 14.25H26.9154C26.0755 14.25 25.2701 13.9164 24.6762 13.3225C24.0823 12.7286 23.7487 11.9232 23.7487 11.0833V6.33333C23.7487 5.49348 24.0823 4.68803 24.6762 4.09416C25.2701 3.5003 26.0755 3.16667 26.9154 3.16667H31.6654C32.5052 3.16667 33.3107 3.5003 33.9045 4.09416C34.4984 4.68803 34.832 5.49348 34.832 6.33333V11.0833Z" fill="#006FFD"/>
<path d="M11.0833 20.5859H6.33333C4.65363 20.5859 3.04272 21.2532 1.85499 22.4409C0.66726 23.6287 0 25.2396 0 26.9193L0 31.6693C0 33.349 0.66726 34.9599 1.85499 36.1476C3.04272 37.3353 4.65363 38.0026 6.33333 38.0026H11.0833C12.763 38.0026 14.3739 37.3353 15.5617 36.1476C16.7494 34.9599 17.4167 33.349 17.4167 31.6693V26.9193C17.4167 25.2396 16.7494 23.6287 15.5617 22.4409C14.3739 21.2532 12.763 20.5859 11.0833 20.5859V20.5859ZM14.25 31.6693C14.25 32.5091 13.9164 33.3146 13.3225 33.9084C12.7286 34.5023 11.9232 34.8359 11.0833 34.8359H6.33333C5.49348 34.8359 4.68803 34.5023 4.09416 33.9084C3.5003 33.3146 3.16667 32.5091 3.16667 31.6693V26.9193C3.16667 26.0794 3.5003 25.274 4.09416 24.6801C4.68803 24.0862 5.49348 23.7526 6.33333 23.7526H11.0833C11.9232 23.7526 12.7286 24.0862 13.3225 24.6801C13.9164 25.274 14.25 26.0794 14.25 26.9193V31.6693Z" fill="#006FFD"/>
<path d="M31.6654 20.5859H26.9154C25.2357 20.5859 23.6248 21.2532 22.437 22.4409C21.2493 23.6287 20.582 25.2396 20.582 26.9193V31.6693C20.582 33.349 21.2493 34.9599 22.437 36.1476C23.6248 37.3353 25.2357 38.0026 26.9154 38.0026H31.6654C33.3451 38.0026 34.956 37.3353 36.1437 36.1476C37.3314 34.9599 37.9987 33.349 37.9987 31.6693V26.9193C37.9987 25.2396 37.3314 23.6287 36.1437 22.4409C34.956 21.2532 33.3451 20.5859 31.6654 20.5859V20.5859ZM34.832 31.6693C34.832 32.5091 34.4984 33.3146 33.9045 33.9084C33.3107 34.5023 32.5052 34.8359 31.6654 34.8359H26.9154C26.0755 34.8359 25.2701 34.5023 24.6762 33.9084C24.0823 33.3146 23.7487 32.5091 23.7487 31.6693V26.9193C23.7487 26.0794 24.0823 25.274 24.6762 24.6801C25.2701 24.0862 26.0755 23.7526 26.9154 23.7526H31.6654C32.5052 23.7526 33.3107 24.0862 33.9045 24.6801C34.4984 25.274 34.832 26.0794 34.832 26.9193V31.6693Z" fill="#006FFD"/>
</svg>
