<svg width="38" height="38" viewBox="0 0 38 38" fill="none" xmlns="http://www.w3.org/2000/svg">
<g clip-path="url(#clip0_2654_1511)">
<path d="M30.0827 15.8359V19.0026C30.0827 21.9421 28.915 24.7612 26.8364 26.8397C24.7579 28.9182 21.9388 30.0859 18.9993 30.0859M18.9993 30.0859C16.0599 30.0859 13.2408 28.9182 11.1622 26.8397C9.08372 24.7612 7.91602 21.9421 7.91602 19.0026V15.8359M18.9993 30.0859V36.4193M12.666 36.4193H25.3327M18.9993 1.58594C17.7396 1.58594 16.5314 2.08638 15.6406 2.97718C14.7498 3.86798 14.2493 5.07616 14.2493 6.33594V19.0026C14.2493 20.2624 14.7498 21.4706 15.6406 22.3614C16.5314 23.2522 17.7396 23.7526 18.9993 23.7526C20.2591 23.7526 21.4673 23.2522 22.3581 22.3614C23.2489 21.4706 23.7493 20.2624 23.7493 19.0026V6.33594C23.7493 5.07616 23.2489 3.86798 22.3581 2.97718C21.4673 2.08638 20.2591 1.58594 18.9993 1.58594Z" stroke="#1E1E1E" stroke-width="4" stroke-linecap="round" stroke-linejoin="round"/>
</g>
<defs>
<clipPath id="clip0_2654_1511">
<rect width="38" height="38" fill="white"/>
</clipPath>
</defs>
</svg>
