<svg width="38" height="38" viewBox="0 0 38 38" fill="none" xmlns="http://www.w3.org/2000/svg">
<g clip-path="url(#clip0_2654_1504)">
<path d="M1.58398 1.58291L36.4173 36.4162M14.2507 14.2496V18.9996C14.2515 19.9384 14.5305 20.856 15.0525 21.6363C15.5745 22.4167 16.316 23.0249 17.1835 23.3841C18.0509 23.7432 19.0053 23.8373 19.9262 23.6544C20.847 23.4714 21.693 23.0197 22.3573 22.3562M23.7507 14.7879V6.33291C23.7518 5.15496 23.3153 4.01858 22.5257 3.14439C21.7362 2.2702 20.65 1.72057 19.478 1.60218C18.306 1.4838 17.1319 1.80512 16.1835 2.50376C15.235 3.2024 14.5801 4.22851 14.3457 5.38291M26.9173 26.8371C25.3716 28.4147 23.3899 29.4946 21.2262 29.9382C19.0625 30.3817 16.8157 30.1687 14.7739 29.3265C12.7322 28.4843 10.9886 27.0512 9.76692 25.2112C8.54524 23.3712 7.90116 21.2082 7.91732 18.9996V15.8329M30.084 15.8329V18.9996C30.0834 19.6526 30.0251 20.3043 29.9098 20.9471M19.0007 30.0829V36.4162M12.6673 36.4162H25.334" stroke="#C00F0C" stroke-width="4" stroke-linecap="round" stroke-linejoin="round"/>
</g>
<defs>
<clipPath id="clip0_2654_1504">
<rect width="38" height="38" fill="white"/>
</clipPath>
</defs>
</svg>
