<svg width="106" height="105" viewBox="0 0 106 105" fill="none" xmlns="http://www.w3.org/2000/svg">
<rect width="106" height="105" fill="#EEEEEE"/>
<path d="M53.0003 26.25C57.8587 26.25 61.8337 30.1875 61.8337 35C61.8337 39.8125 57.8587 43.75 53.0003 43.75C48.142 43.75 44.167 39.8125 44.167 35C44.167 30.1875 48.142 26.25 53.0003 26.25ZM53.0003 70C64.9253 70 78.617 75.6437 79.5003 78.75H26.5003C27.5162 75.6 41.1195 70 53.0003 70ZM53.0003 17.5C43.2395 17.5 35.3337 25.3312 35.3337 35C35.3337 44.6688 43.2395 52.5 53.0003 52.5C62.7612 52.5 70.667 44.6688 70.667 35C70.667 25.3312 62.7612 17.5 53.0003 17.5ZM53.0003 61.25C41.2078 61.25 17.667 67.1125 17.667 78.75V87.5H88.3337V78.75C88.3337 67.1125 64.7928 61.25 53.0003 61.25Z" fill="black"/>
</svg>
