<svg width="23" height="20" viewBox="0 0 23 20" fill="none" xmlns="http://www.w3.org/2000/svg">
<path fill-rule="evenodd" clip-rule="evenodd" d="M0.193359 2.60917C0.193359 1.34075 1.22161 0.3125 2.49003 0.3125H20.51C21.7784 0.3125 22.8067 1.34075 22.8067 2.60917V16.7425C22.8067 18.0109 21.7784 19.0392 20.51 19.0392H2.49003C1.22161 19.0392 0.193359 18.0109 0.193359 16.7425V2.60917ZM2.49003 1.3725C1.80703 1.3725 1.25336 1.92617 1.25336 2.60917V16.7425C1.25336 17.4255 1.80703 17.9792 2.49003 17.9792H20.51C21.193 17.9792 21.7467 17.4255 21.7467 16.7425V2.60917C21.7467 1.92617 21.193 1.3725 20.51 1.3725H2.49003Z" fill="#9CA3AF"/>
<ellipse cx="5.49393" cy="5.2576" rx="2.29667" ry="2.29667" fill="#9CA3AF"/>
<path d="M18.4906 15.8608H4.82125C3.92435 15.8608 3.19727 15.1337 3.19727 14.2368C3.19727 13.8061 3.36836 13.3931 3.67292 13.0885L5.97217 10.7893C6.49565 10.2658 7.33799 10.2457 7.88578 10.7437C8.42799 11.2366 9.2601 11.2227 9.78549 10.7119L14.0323 6.58305C14.6857 5.94779 15.7282 5.95513 16.3726 6.59953L19.6691 9.89601C19.9817 10.2086 20.1573 10.6325 20.1573 11.0745V14.1942C20.1573 15.1146 19.4111 15.8608 18.4906 15.8608Z" fill="#9CA3AF"/>
</svg>
