<svg width="24" height="24" viewBox="0 0 24 24" fill="none" xmlns="http://www.w3.org/2000/svg">
<path d="M15.7559 14.2578H14.9659L14.6859 13.9878C15.6659 12.8478 16.2559 11.3678 16.2559 9.75781C16.2559 6.16781 13.3459 3.25781 9.75586 3.25781C6.16586 3.25781 3.25586 6.16781 3.25586 9.75781C3.25586 13.3478 6.16586 16.2578 9.75586 16.2578C11.3659 16.2578 12.8459 15.6678 13.9859 14.6878L14.2559 14.9678V15.7578L19.2559 20.7478L20.7459 19.2578L15.7559 14.2578ZM9.75586 14.2578C7.26586 14.2578 5.25586 12.2478 5.25586 9.75781C5.25586 7.26781 7.26586 5.25781 9.75586 5.25781C12.2459 5.25781 14.2559 7.26781 14.2559 9.75781C14.2559 12.2478 12.2459 14.2578 9.75586 14.2578Z" fill="black"/>
</svg>
