<svg width="18" height="18" viewBox="0 0 18 18" fill="none" xmlns="http://www.w3.org/2000/svg">
<path d="M16.4032 2.06017L17.031 1.41485C17.3275 1.10092 17.3275 0.682334 17.031 0.394559L16.8305 0.185268C16.5601 -0.0850661 16.1328 -0.0501843 15.8451 0.22887L15.2085 0.856743L16.4032 2.06017ZM5.91247 11.5742L7.61296 10.8329L15.7579 2.69676L14.5632 1.5195L6.42697 9.65568L5.64213 11.2951C5.57237 11.4434 5.74678 11.6439 5.91247 11.5742ZM2.73822 17.225H12.976C14.5457 17.225 15.4526 16.3181 15.4526 14.5217V5.19953L14.0487 6.60352V14.4519C14.0487 15.3589 13.5603 15.821 12.9586 15.821H2.76438C1.89234 15.821 1.40399 15.3589 1.40399 14.4519V4.55422C1.40399 3.64729 1.89234 3.17638 2.76438 3.17638H10.7087L12.1127 1.77239H2.73822C0.924368 1.77239 0 2.67932 0 4.47573V14.5217C0 16.3268 0.924368 17.225 2.73822 17.225Z" fill="#007AFF"/>
</svg>
