<svg width="40" height="40" viewBox="0 0 40 40" fill="none" xmlns="http://www.w3.org/2000/svg">
<g clip-path="url(#clip0_2675_10)">
<mask id="mask0_2675_10" style="mask-type:luminance" maskUnits="userSpaceOnUse" x="0" y="0" width="40" height="40">
<path d="M40 20C40 8.9543 31.0457 0 20 0C8.9543 0 0 8.9543 0 20C0 31.0457 8.9543 40 20 40C31.0457 40 40 31.0457 40 20Z" fill="white"/>
</mask>
<g mask="url(#mask0_2675_10)">
<path d="M20 22C19.1667 22 18.4583 21.7083 17.875 21.125C17.2917 20.5417 17 19.8333 17 19V13C17 12.1667 17.2917 11.4583 17.875 10.875C18.4583 10.2917 19.1667 10 20 10C20.8333 10 21.5417 10.2917 22.125 10.875C22.7083 11.4583 23 12.1667 23 13V19C23 19.8333 22.7083 20.5417 22.125 21.125C21.5417 21.7083 20.8333 22 20 22ZM19 29V25.925C17.2667 25.6917 15.8333 24.9167 14.7 23.6C13.5667 22.2833 13 20.75 13 19H15C15 20.3833 15.4875 21.5625 16.4625 22.5375C17.4375 23.5125 18.6167 24 20 24C21.3833 24 22.5625 23.5125 23.5375 22.5375C24.5125 21.5625 25 20.3833 25 19H27C27 20.75 26.4333 22.2833 25.3 23.6C24.1667 24.9167 22.7333 25.6917 21 25.925V29H19Z" fill="#4F4545"/>
</g>
<line x1="26.4053" y1="10.2927" x2="13.4053" y2="28.2927" stroke="#FF0000"/>
</g>
<defs>
<clipPath id="clip0_2675_10">
<rect width="40" height="40" fill="white"/>
</clipPath>
</defs>
</svg>
