<svg width="40" height="40" viewBox="0 0 40 40" fill="none" xmlns="http://www.w3.org/2000/svg">
<rect x="3.33398" y="3.33594" width="33.3333" height="33.3333" rx="10" fill="#006FFD"/>
<path fill-rule="evenodd" clip-rule="evenodd" d="M15.0131 15.8599C15.0131 13.1181 17.2358 10.8953 19.9777 10.8953C22.7196 10.8953 24.9423 13.1181 24.9423 15.8599V17.8065C24.9423 18.4696 25.1562 19.0607 25.4111 19.5712C25.5896 19.9288 25.8132 20.2912 26.013 20.6151L26.0131 20.6153C26.0882 20.7369 26.1599 20.8532 26.2246 20.9617C26.4375 21.3187 26.5601 21.7359 26.5601 22.1838C26.5601 23.3429 25.7356 24.3131 24.6197 24.4678C23.1587 24.6704 21.3656 24.8691 19.9777 24.8691C18.5898 24.8691 16.7967 24.6704 15.3357 24.4678C14.2198 24.3131 13.3953 23.3429 13.3953 22.1838C13.3953 21.7359 13.5179 21.3187 13.7308 20.9617C13.7955 20.8531 13.8673 20.7368 13.9424 20.6151L13.9424 20.6151L13.9424 20.6151C14.1422 20.2912 14.3658 19.9288 14.5443 19.5711C14.7992 19.0607 15.0131 18.4696 15.0131 17.8064V15.8599ZM19.9777 9.5C16.4652 9.5 13.6178 12.3474 13.6178 15.8599V17.8064C13.6178 18.1669 13.502 18.5352 13.2959 18.948C13.147 19.2463 12.9761 19.5231 12.7898 19.825C12.7069 19.9593 12.6209 20.0986 12.5324 20.247C12.1941 20.8142 12 21.4773 12 22.1838C12 24.0067 13.3061 25.5951 15.1441 25.85C16.6164 26.0541 18.4887 26.2645 19.9777 26.2645C21.4667 26.2645 23.339 26.0541 24.8113 25.85C26.6493 25.5951 27.9554 24.0067 27.9554 22.1838C27.9554 21.4774 27.7613 20.8142 27.423 20.247C27.3346 20.0988 27.2487 19.9596 27.1659 19.8254L27.1656 19.825L27.1656 19.825C26.9793 19.5231 26.8084 19.2463 26.6595 18.948C26.4534 18.5352 26.3376 18.1669 26.3376 17.8065V15.8599C26.3376 12.3474 23.4902 9.5 19.9777 9.5ZM21.419 27.3312C21.6323 27.0104 22.0653 26.9232 22.3862 27.1366C22.7071 27.3499 22.7942 27.7829 22.5809 28.1038C22.0223 28.9439 21.0651 29.5 19.9777 29.5C18.8903 29.5 17.9331 28.9439 17.3745 28.1038C17.1612 27.7829 17.2483 27.3499 17.5692 27.1366C17.8901 26.9232 18.3231 27.0104 18.5364 27.3312C18.8474 27.7989 19.377 28.1047 19.9777 28.1047C20.5784 28.1047 21.108 27.7989 21.419 27.3312Z" fill="white"/>
</svg>
