<svg width="18" height="18" viewBox="0 0 18 18" fill="none" xmlns="http://www.w3.org/2000/svg">
<path d="M0.868516 5.71532L8.57435 1.09532C8.70386 1.01761 8.85206 0.976563 9.0031 0.976562C9.15414 0.976563 9.30234 1.01761 9.43185 1.09532L17.1302 5.71615C17.1919 5.75317 17.2431 5.80555 17.2786 5.86821C17.3141 5.93086 17.3327 6.00165 17.3327 6.07365V16.6703C17.3327 16.8913 17.2449 17.1033 17.0886 17.2596C16.9323 17.4159 16.7204 17.5037 16.4993 17.5037H1.49935C1.27834 17.5037 1.06637 17.4159 0.910093 17.2596C0.753813 17.1033 0.666016 16.8913 0.666016 16.6703V6.07282C0.666001 6.00081 0.684647 5.93003 0.720137 5.86738C0.755627 5.80472 0.806748 5.75233 0.868516 5.71532ZM2.33268 6.78115V15.837H15.666V6.78032L9.00268 2.78032L2.33268 6.78032V6.78115ZM9.04935 11.4187L13.4627 7.69949L14.536 8.97449L9.06102 13.5887L3.46935 8.98032L4.52935 7.69365L9.04935 11.4187Z" fill="#A9A9A9"/>
</svg>
