<svg width="43" height="40" viewBox="0 0 43 40" fill="none" xmlns="http://www.w3.org/2000/svg">
<path d="M27.3636 1.3036e-05C30.1574 -0.000345344 32.739 1.60501 34.1356 4.21116C35.5323 6.8173 35.5317 10.0281 34.1342 12.6337L43 12.6316V16.8421H39.0909V37.8947C39.0909 39.0574 38.2158 40 37.1364 40H5.86364C4.78417 40 3.90909 39.0574 3.90909 37.8947V16.8421H0V12.6316L8.86582 12.6337C6.85686 8.88673 7.81117 4.10967 11.0731 1.58433C14.3351 -0.94101 18.843 -0.392671 21.5 2.85264C22.9813 1.03559 25.1187 -0.00424662 27.3636 1.3036e-05ZM23.4545 16.8421H19.5455V37.8947H23.4545V16.8421ZM15.6364 4.21054C13.5277 4.20038 11.7917 5.9934 11.7125 8.26304C11.6334 10.5327 13.2398 12.4609 15.3432 12.6211L15.6364 12.6316H19.5455V8.42106C19.5455 6.3419 18.1366 4.57395 16.2286 4.25896L15.9276 4.22106L15.6364 4.21054ZM27.3636 4.21054C25.318 4.20984 23.6177 5.90806 23.4643 8.10527L23.4545 8.42106V12.6316H27.3636C29.4093 12.6323 31.1095 10.9341 31.263 8.73685L31.2727 8.42106C31.2727 6.09565 29.5226 4.21054 27.3636 4.21054Z" fill="#D8D8D8"/>
</svg>
