<svg width="31" height="40" viewBox="0 0 31 40" fill="none" xmlns="http://www.w3.org/2000/svg">
<path d="M16.0008 0C20.6318 0 24.3859 4.07017 24.3859 9.09094V16.3636C24.3859 21.3844 20.6318 25.4545 16.0008 25.4545C11.3699 25.4545 7.6158 21.3844 7.6158 16.3636V9.09094C7.6158 4.07017 11.3699 0 16.0008 0ZM1 18.1818H4.37917C5.2191 24.4387 10.1673 29.0792 15.9992 29.0792C21.8311 29.0792 26.7792 24.4387 27.6192 18.1818H31C30.2147 25.7786 24.6847 31.7749 17.6778 32.6273V40H14.3238V32.6273C7.31634 31.7757 1.78546 25.7792 1 18.1818Z" fill="#D8D8D8"/>
<line x1="0.611622" y1="39.6851" x2="30.6116" y2="2.6851" stroke="#FF0000"/>
</svg>
