<svg width="16" height="19" viewBox="0 0 16 19" fill="none" xmlns="http://www.w3.org/2000/svg">
<path d="M13 6.66927H14.6667C14.8877 6.66927 15.0996 6.75707 15.2559 6.91335C15.4122 7.06963 15.5 7.28159 15.5 7.5026V17.5026C15.5 17.7236 15.4122 17.9356 15.2559 18.0919C15.0996 18.2481 14.8877 18.3359 14.6667 18.3359H1.33333C1.11232 18.3359 0.900358 18.2481 0.744078 18.0919C0.587797 17.9356 0.5 17.7236 0.5 17.5026V7.5026C0.5 7.28159 0.587797 7.06963 0.744078 6.91335C0.900358 6.75707 1.11232 6.66927 1.33333 6.66927H3V5.83594C3 4.50986 3.52678 3.23809 4.46447 2.3004C5.40215 1.36272 6.67392 0.835938 8 0.835938C9.32608 0.835938 10.5979 1.36272 11.5355 2.3004C12.4732 3.23809 13 4.50986 13 5.83594V6.66927ZM2.16667 8.33594V16.6693H13.8333V8.33594H2.16667ZM7.16667 11.6693H8.83333V13.3359H7.16667V11.6693ZM3.83333 11.6693H5.5V13.3359H3.83333V11.6693ZM10.5 11.6693H12.1667V13.3359H10.5V11.6693ZM11.3333 6.66927V5.83594C11.3333 4.95188 10.9821 4.10404 10.357 3.47891C9.7319 2.85379 8.88406 2.5026 8 2.5026C7.11594 2.5026 6.2681 2.85379 5.64298 3.47891C5.01786 4.10404 4.66667 4.95188 4.66667 5.83594V6.66927H11.3333Z" fill="#A9A9A9"/>
</svg>
