<svg width="40" height="30" viewBox="0 0 40 30" fill="none" xmlns="http://www.w3.org/2000/svg">
<path d="M27.2727 0C28.2769 0 29.0909 0.839466 29.0909 1.875V9.75L38.5691 2.90625C38.8469 2.70542 39.21 2.68088 39.5109 2.84253C39.8118 3.00418 40.0004 3.32517 40 3.67505V26.325C40.0004 26.6749 39.8118 26.9959 39.5109 27.1575C39.21 27.3192 38.8469 27.2947 38.5691 27.0938L29.0909 20.25V28.125C29.0909 29.1605 28.2769 30 27.2727 30H1.81818C0.814024 30 0 29.1605 0 28.125V1.875C0 0.839466 0.814024 0 1.81818 0H27.2727ZM11.6364 9.05432C11.2907 9.05424 10.9928 9.30517 10.9236 9.65442L10.9091 9.80249V20.1937C10.909 20.7188 11.4186 21.0814 11.8945 20.895L12.0273 20.8275L19.9455 15.63C20.3405 15.3693 20.3966 14.7968 20.06 14.46L19.9455 14.3662L12.0273 9.1687C11.91 9.09371 11.7744 9.05468 11.6364 9.05432Z" fill="#D8D8D8"/>
<line x1="1.69828" y1="28.6013" x2="38.6983" y2="0.601296" stroke="#FF0000"/>
</svg>
